Transmição gravada ao vivo da tv digital, deu uma queda de sinal e o vídeo ficou sem o final da volta 37 até o início da 39

General
Format                         : AVI
Format/Info                    : Audio Video Interleave
File size                      : 1.53 GiB
Duration                       : 1h 55mn
Overall bit rate               : 1 897 Kbps
Writing library                : VirtualDub build 32842/release

Video
ID                             : 0
Format                         : AVC
Format/Info                    : Advanced Video Codec
Format profile                 : High@L3.1
Format settings, CABAC         : Yes
Format settings, ReFrames      : 2 frames
Codec ID                       : H264
Duration                       : 1h 55mn
Bit rate                       : 1 773 Kbps
Width                          : 1 280 pixels
Height                         : 720 pixels
Display aspect ratio           : 16:9
Frame rate                     : 30.000 fps
Color space                    : YUV
Chroma subsampling             : 4:2:0
Bit depth                      : 8 bits
Scan type                      : Progressive
Bits/(Pixel*Frame)             : 0.064
Stream size                    : 1.43 GiB (93%)
Writing library                : x264 core 125 r2200bm 999b753
Encoding settings              : cabac=1 / ref=2 / deblock=1:0:0 / analyse=0x3:0x113 / me=hex / subme=6 / psy=1 / psy_rd=1.00:0.00 / mixed_ref=1 / me_range=16 / chroma_me=1 / trellis=1 / 8x8dct=1 / cqm=0 / deadzone=21,11 / fast_pskip=1 / chroma_qp_offset=-2 / threads=2 / lookahead_threads=2 / sliced_threads=1 / slices=2 / nr=0 / decimate=1 / interlaced=0 / bluray_compat=0 / constrained_intra=0 / bframes=0 / weightp=1 / keyint=250 / keyint_min=25 / scenecut=40 / intra_refresh=0 / rc=crf / mbtree=0 / crf=27.0 / qcomp=0.60 / qpmin=0 / qpmax=69 / qpstep=4 / ip_ratio=1.40 / aq=1:1.00

Audio
ID                             : 1
Format                         : MPEG Audio
Format version                 : Version 1
Format profile                 : Layer 3
Mode                           : Joint stereo
Mode extension                 : MS Stereo
Codec ID                       : 55
Codec ID/Hint                  : MP3
Duration                       : 1h 55mn
Bit rate mode                  : Constant
Bit rate                       : 112 Kbps
Channel(s)                     : 2 channels
Sampling rate                  : 44.1 KHz
Compression mode               : Lossy
Stream size                    : 92.6 MiB (6%)
Alignment                      : Split accross interleaves
Interleave, duration           : 33 ms (1.00 video frame)
Interleave, preload duration   : 500 ms
